<mxfile host="app.diagrams.net" modified="2023-12-07T00:33:10.699Z" agent="Mozilla/5.0 (Windows NT 10.0; Win64; x64) AppleWebKit/537.36 (KHTML, like Gecko) Chrome/119.0.0.0 Safari/537.36" etag="HBeGRKv3ap69gSt2mNpU" version="22.1.7" type="device">
  <diagram name="Страница — 1" id="elk48xvjuhk4QuuKk8-j">
    <mxGraphModel dx="2629" dy="2042" grid="1" gridSize="10" guides="1" tooltips="1" connect="1" arrows="1" fold="1" page="1" pageScale="1" pageWidth="827" pageHeight="1169" math="0" shadow="0">
      <root>
        <mxCell id="0" />
        <mxCell id="1" parent="0" />
        <mxCell id="Dok_Cso29Ui5fQDiKSWH-6" style="edgeStyle=orthogonalEdgeStyle;rounded=0;orthogonalLoop=1;jettySize=auto;html=1;entryX=1;entryY=0.5;entryDx=0;entryDy=0;" parent="1" source="Dok_Cso29Ui5fQDiKSWH-1" target="Dok_Cso29Ui5fQDiKSWH-5" edge="1">
          <mxGeometry relative="1" as="geometry" />
        </mxCell>
        <mxCell id="Dok_Cso29Ui5fQDiKSWH-8" style="edgeStyle=orthogonalEdgeStyle;rounded=0;orthogonalLoop=1;jettySize=auto;html=1;entryX=0.5;entryY=0;entryDx=0;entryDy=0;" parent="1" source="Dok_Cso29Ui5fQDiKSWH-1" target="Dok_Cso29Ui5fQDiKSWH-7" edge="1">
          <mxGeometry relative="1" as="geometry" />
        </mxCell>
        <mxCell id="Dok_Cso29Ui5fQDiKSWH-10" style="edgeStyle=orthogonalEdgeStyle;rounded=0;orthogonalLoop=1;jettySize=auto;html=1;entryX=0.5;entryY=0;entryDx=0;entryDy=0;" parent="1" source="Dok_Cso29Ui5fQDiKSWH-1" target="Dok_Cso29Ui5fQDiKSWH-9" edge="1">
          <mxGeometry relative="1" as="geometry" />
        </mxCell>
        <mxCell id="Dok_Cso29Ui5fQDiKSWH-13" style="edgeStyle=orthogonalEdgeStyle;rounded=0;orthogonalLoop=1;jettySize=auto;html=1;entryX=0;entryY=0.5;entryDx=0;entryDy=0;" parent="1" source="Dok_Cso29Ui5fQDiKSWH-1" target="Dok_Cso29Ui5fQDiKSWH-11" edge="1">
          <mxGeometry relative="1" as="geometry" />
        </mxCell>
        <mxCell id="Dok_Cso29Ui5fQDiKSWH-15" style="edgeStyle=orthogonalEdgeStyle;rounded=0;orthogonalLoop=1;jettySize=auto;html=1;entryX=0;entryY=0.5;entryDx=0;entryDy=0;" parent="1" source="Dok_Cso29Ui5fQDiKSWH-1" target="Dok_Cso29Ui5fQDiKSWH-14" edge="1">
          <mxGeometry relative="1" as="geometry" />
        </mxCell>
        <mxCell id="Dok_Cso29Ui5fQDiKSWH-19" style="edgeStyle=orthogonalEdgeStyle;rounded=0;orthogonalLoop=1;jettySize=auto;html=1;entryX=0;entryY=0.5;entryDx=0;entryDy=0;" parent="1" source="Dok_Cso29Ui5fQDiKSWH-1" target="Dok_Cso29Ui5fQDiKSWH-16" edge="1">
          <mxGeometry relative="1" as="geometry">
            <mxPoint x="1360" y="-647" as="targetPoint" />
            <Array as="points">
              <mxPoint x="1370" y="-647" />
            </Array>
          </mxGeometry>
        </mxCell>
        <mxCell id="Dok_Cso29Ui5fQDiKSWH-1" value="&lt;font style=&quot;font-size: 24px;&quot;&gt;Главное меню&lt;/font&gt;" style="rounded=0;whiteSpace=wrap;html=1;" parent="1" vertex="1">
          <mxGeometry x="827" y="-680" width="230" height="66" as="geometry" />
        </mxCell>
        <mxCell id="mRhkuG8ixla9dIbqJ6AS-4" style="edgeStyle=orthogonalEdgeStyle;rounded=0;orthogonalLoop=1;jettySize=auto;html=1;entryX=1;entryY=0.5;entryDx=0;entryDy=0;" edge="1" parent="1" source="Dok_Cso29Ui5fQDiKSWH-2" target="mRhkuG8ixla9dIbqJ6AS-3">
          <mxGeometry relative="1" as="geometry" />
        </mxCell>
        <mxCell id="Dok_Cso29Ui5fQDiKSWH-2" value="&lt;font style=&quot;font-size: 24px;&quot;&gt;Начать (кнопка)&lt;/font&gt;" style="rounded=0;whiteSpace=wrap;html=1;" parent="1" vertex="1">
          <mxGeometry x="390" y="-490" width="205" height="53" as="geometry" />
        </mxCell>
        <mxCell id="Dok_Cso29Ui5fQDiKSWH-3" style="edgeStyle=orthogonalEdgeStyle;rounded=0;orthogonalLoop=1;jettySize=auto;html=1;entryX=1;entryY=0.623;entryDx=0;entryDy=0;entryPerimeter=0;" parent="1" source="Dok_Cso29Ui5fQDiKSWH-1" target="Dok_Cso29Ui5fQDiKSWH-2" edge="1">
          <mxGeometry relative="1" as="geometry" />
        </mxCell>
        <mxCell id="mRhkuG8ixla9dIbqJ6AS-8" style="edgeStyle=orthogonalEdgeStyle;rounded=0;orthogonalLoop=1;jettySize=auto;html=1;entryX=1;entryY=0.5;entryDx=0;entryDy=0;" edge="1" parent="1" source="Dok_Cso29Ui5fQDiKSWH-5" target="mRhkuG8ixla9dIbqJ6AS-7">
          <mxGeometry relative="1" as="geometry" />
        </mxCell>
        <mxCell id="Dok_Cso29Ui5fQDiKSWH-5" value="&lt;font style=&quot;font-size: 24px;&quot;&gt;&lt;font style=&quot;&quot;&gt;Загрузить&amp;nbsp;&lt;/font&gt;(кнопка)&lt;/font&gt;" style="rounded=0;whiteSpace=wrap;html=1;" parent="1" vertex="1">
          <mxGeometry x="380" y="-320" width="215" height="60" as="geometry" />
        </mxCell>
        <mxCell id="mRhkuG8ixla9dIbqJ6AS-10" style="edgeStyle=orthogonalEdgeStyle;rounded=0;orthogonalLoop=1;jettySize=auto;html=1;entryX=1;entryY=0.5;entryDx=0;entryDy=0;" edge="1" parent="1" source="Dok_Cso29Ui5fQDiKSWH-7" target="mRhkuG8ixla9dIbqJ6AS-9">
          <mxGeometry relative="1" as="geometry" />
        </mxCell>
        <mxCell id="mRhkuG8ixla9dIbqJ6AS-12" style="edgeStyle=orthogonalEdgeStyle;rounded=0;orthogonalLoop=1;jettySize=auto;html=1;entryX=1;entryY=0.5;entryDx=0;entryDy=0;" edge="1" parent="1" source="Dok_Cso29Ui5fQDiKSWH-7" target="mRhkuG8ixla9dIbqJ6AS-11">
          <mxGeometry relative="1" as="geometry">
            <Array as="points">
              <mxPoint x="580" y="-160" />
              <mxPoint x="580" y="70" />
            </Array>
          </mxGeometry>
        </mxCell>
        <mxCell id="mRhkuG8ixla9dIbqJ6AS-14" style="edgeStyle=orthogonalEdgeStyle;rounded=0;orthogonalLoop=1;jettySize=auto;html=1;entryX=1;entryY=0.5;entryDx=0;entryDy=0;" edge="1" parent="1" source="Dok_Cso29Ui5fQDiKSWH-7" target="mRhkuG8ixla9dIbqJ6AS-13">
          <mxGeometry relative="1" as="geometry">
            <Array as="points">
              <mxPoint x="580" y="-160" />
              <mxPoint x="580" y="190" />
            </Array>
          </mxGeometry>
        </mxCell>
        <mxCell id="mRhkuG8ixla9dIbqJ6AS-16" style="edgeStyle=orthogonalEdgeStyle;rounded=0;orthogonalLoop=1;jettySize=auto;html=1;entryX=1;entryY=0.5;entryDx=0;entryDy=0;" edge="1" parent="1" source="Dok_Cso29Ui5fQDiKSWH-7" target="mRhkuG8ixla9dIbqJ6AS-15">
          <mxGeometry relative="1" as="geometry">
            <Array as="points">
              <mxPoint x="580" y="-160" />
              <mxPoint x="580" y="300" />
            </Array>
          </mxGeometry>
        </mxCell>
        <mxCell id="mRhkuG8ixla9dIbqJ6AS-18" style="edgeStyle=orthogonalEdgeStyle;rounded=0;orthogonalLoop=1;jettySize=auto;html=1;entryX=1;entryY=0.5;entryDx=0;entryDy=0;" edge="1" parent="1" source="Dok_Cso29Ui5fQDiKSWH-7" target="mRhkuG8ixla9dIbqJ6AS-17">
          <mxGeometry relative="1" as="geometry" />
        </mxCell>
        <mxCell id="mRhkuG8ixla9dIbqJ6AS-20" style="edgeStyle=orthogonalEdgeStyle;rounded=0;orthogonalLoop=1;jettySize=auto;html=1;entryX=1;entryY=0.5;entryDx=0;entryDy=0;" edge="1" parent="1" source="Dok_Cso29Ui5fQDiKSWH-7" target="mRhkuG8ixla9dIbqJ6AS-19">
          <mxGeometry relative="1" as="geometry">
            <Array as="points">
              <mxPoint x="580" y="-160" />
              <mxPoint x="580" y="548" />
            </Array>
          </mxGeometry>
        </mxCell>
        <mxCell id="mRhkuG8ixla9dIbqJ6AS-22" style="edgeStyle=orthogonalEdgeStyle;rounded=0;orthogonalLoop=1;jettySize=auto;html=1;entryX=1;entryY=0.5;entryDx=0;entryDy=0;" edge="1" parent="1" source="Dok_Cso29Ui5fQDiKSWH-7" target="mRhkuG8ixla9dIbqJ6AS-21">
          <mxGeometry relative="1" as="geometry">
            <Array as="points">
              <mxPoint x="580" y="-160" />
              <mxPoint x="580" y="670" />
            </Array>
          </mxGeometry>
        </mxCell>
        <mxCell id="mRhkuG8ixla9dIbqJ6AS-24" style="edgeStyle=orthogonalEdgeStyle;rounded=0;orthogonalLoop=1;jettySize=auto;html=1;entryX=1;entryY=0.5;entryDx=0;entryDy=0;" edge="1" parent="1" source="Dok_Cso29Ui5fQDiKSWH-7" target="mRhkuG8ixla9dIbqJ6AS-23">
          <mxGeometry relative="1" as="geometry">
            <Array as="points">
              <mxPoint x="580" y="-160" />
              <mxPoint x="580" y="790" />
            </Array>
          </mxGeometry>
        </mxCell>
        <mxCell id="mRhkuG8ixla9dIbqJ6AS-27" style="edgeStyle=orthogonalEdgeStyle;rounded=0;orthogonalLoop=1;jettySize=auto;html=1;entryX=1;entryY=0.5;entryDx=0;entryDy=0;" edge="1" parent="1" source="Dok_Cso29Ui5fQDiKSWH-7" target="mRhkuG8ixla9dIbqJ6AS-25">
          <mxGeometry relative="1" as="geometry">
            <Array as="points">
              <mxPoint x="580" y="-160" />
              <mxPoint x="580" y="920" />
            </Array>
          </mxGeometry>
        </mxCell>
        <mxCell id="Dok_Cso29Ui5fQDiKSWH-7" value="&lt;font style=&quot;font-size: 24px;&quot;&gt;&lt;font style=&quot;&quot;&gt;Настройки&amp;nbsp;&lt;/font&gt;(кнопка)&lt;/font&gt;" style="rounded=0;whiteSpace=wrap;html=1;" parent="1" vertex="1">
          <mxGeometry x="640" y="-190" width="220" height="60" as="geometry" />
        </mxCell>
        <mxCell id="mRhkuG8ixla9dIbqJ6AS-31" style="edgeStyle=orthogonalEdgeStyle;rounded=0;orthogonalLoop=1;jettySize=auto;html=1;entryX=0;entryY=0.5;entryDx=0;entryDy=0;" edge="1" parent="1" source="Dok_Cso29Ui5fQDiKSWH-9" target="mRhkuG8ixla9dIbqJ6AS-28">
          <mxGeometry relative="1" as="geometry" />
        </mxCell>
        <mxCell id="mRhkuG8ixla9dIbqJ6AS-32" style="edgeStyle=orthogonalEdgeStyle;rounded=0;orthogonalLoop=1;jettySize=auto;html=1;entryX=0;entryY=0.5;entryDx=0;entryDy=0;" edge="1" parent="1" source="Dok_Cso29Ui5fQDiKSWH-9" target="mRhkuG8ixla9dIbqJ6AS-29">
          <mxGeometry relative="1" as="geometry" />
        </mxCell>
        <mxCell id="mRhkuG8ixla9dIbqJ6AS-33" style="edgeStyle=orthogonalEdgeStyle;rounded=0;orthogonalLoop=1;jettySize=auto;html=1;entryX=0;entryY=0.5;entryDx=0;entryDy=0;" edge="1" parent="1" source="Dok_Cso29Ui5fQDiKSWH-9" target="mRhkuG8ixla9dIbqJ6AS-30">
          <mxGeometry relative="1" as="geometry" />
        </mxCell>
        <mxCell id="mRhkuG8ixla9dIbqJ6AS-35" style="edgeStyle=orthogonalEdgeStyle;rounded=0;orthogonalLoop=1;jettySize=auto;html=1;entryX=0;entryY=0.5;entryDx=0;entryDy=0;" edge="1" parent="1" source="Dok_Cso29Ui5fQDiKSWH-9" target="mRhkuG8ixla9dIbqJ6AS-34">
          <mxGeometry relative="1" as="geometry" />
        </mxCell>
        <mxCell id="Dok_Cso29Ui5fQDiKSWH-9" value="&lt;font style=&quot;font-size: 24px;&quot;&gt;&lt;font style=&quot;&quot;&gt;Галерея&amp;nbsp;&lt;/font&gt;(кнопка)&lt;/font&gt;" style="rounded=0;whiteSpace=wrap;html=1;" parent="1" vertex="1">
          <mxGeometry x="990" y="-190" width="204" height="60" as="geometry" />
        </mxCell>
        <mxCell id="mRhkuG8ixla9dIbqJ6AS-37" style="edgeStyle=orthogonalEdgeStyle;rounded=0;orthogonalLoop=1;jettySize=auto;html=1;entryX=0;entryY=0.5;entryDx=0;entryDy=0;" edge="1" parent="1" source="Dok_Cso29Ui5fQDiKSWH-11" target="mRhkuG8ixla9dIbqJ6AS-36">
          <mxGeometry relative="1" as="geometry" />
        </mxCell>
        <mxCell id="Dok_Cso29Ui5fQDiKSWH-11" value="&lt;font style=&quot;font-size: 24px;&quot;&gt;&lt;font style=&quot;&quot;&gt;Об игре&amp;nbsp;&lt;/font&gt;(кнопка)&lt;/font&gt;" style="rounded=0;whiteSpace=wrap;html=1;" parent="1" vertex="1">
          <mxGeometry x="1380" y="-320" width="200" height="60" as="geometry" />
        </mxCell>
        <mxCell id="mRhkuG8ixla9dIbqJ6AS-39" style="edgeStyle=orthogonalEdgeStyle;rounded=0;orthogonalLoop=1;jettySize=auto;html=1;entryX=0;entryY=0.5;entryDx=0;entryDy=0;" edge="1" parent="1" source="Dok_Cso29Ui5fQDiKSWH-14" target="mRhkuG8ixla9dIbqJ6AS-38">
          <mxGeometry relative="1" as="geometry" />
        </mxCell>
        <mxCell id="Dok_Cso29Ui5fQDiKSWH-14" value="&lt;font style=&quot;font-size: 24px;&quot;&gt;&lt;font style=&quot;&quot;&gt;Помощь&amp;nbsp;&lt;/font&gt;(кнопка)&lt;/font&gt;" style="rounded=0;whiteSpace=wrap;html=1;" parent="1" vertex="1">
          <mxGeometry x="1380" y="-490" width="200" height="60" as="geometry" />
        </mxCell>
        <mxCell id="mRhkuG8ixla9dIbqJ6AS-41" style="edgeStyle=orthogonalEdgeStyle;rounded=0;orthogonalLoop=1;jettySize=auto;html=1;entryX=0;entryY=0.5;entryDx=0;entryDy=0;" edge="1" parent="1" source="Dok_Cso29Ui5fQDiKSWH-16" target="mRhkuG8ixla9dIbqJ6AS-40">
          <mxGeometry relative="1" as="geometry" />
        </mxCell>
        <mxCell id="Dok_Cso29Ui5fQDiKSWH-16" value="&lt;font style=&quot;font-size: 24px;&quot;&gt;&lt;font style=&quot;&quot;&gt;Выход&amp;nbsp;&lt;/font&gt;(кнопка)&lt;/font&gt;" style="rounded=0;whiteSpace=wrap;html=1;" parent="1" vertex="1">
          <mxGeometry x="1380" y="-677" width="190" height="60" as="geometry" />
        </mxCell>
        <mxCell id="mRhkuG8ixla9dIbqJ6AS-2" style="edgeStyle=orthogonalEdgeStyle;rounded=0;orthogonalLoop=1;jettySize=auto;html=1;entryX=0.5;entryY=0;entryDx=0;entryDy=0;" edge="1" parent="1" source="mRhkuG8ixla9dIbqJ6AS-1" target="Dok_Cso29Ui5fQDiKSWH-1">
          <mxGeometry relative="1" as="geometry" />
        </mxCell>
        <mxCell id="mRhkuG8ixla9dIbqJ6AS-1" value="&lt;font style=&quot;font-size: 24px;&quot;&gt;Пользователь&lt;/font&gt;" style="rounded=0;whiteSpace=wrap;html=1;" vertex="1" parent="1">
          <mxGeometry x="847" y="-870" width="190" height="60" as="geometry" />
        </mxCell>
        <mxCell id="mRhkuG8ixla9dIbqJ6AS-6" style="edgeStyle=orthogonalEdgeStyle;rounded=0;orthogonalLoop=1;jettySize=auto;html=1;entryX=0.5;entryY=1;entryDx=0;entryDy=0;" edge="1" parent="1" source="mRhkuG8ixla9dIbqJ6AS-3" target="mRhkuG8ixla9dIbqJ6AS-5">
          <mxGeometry relative="1" as="geometry" />
        </mxCell>
        <mxCell id="mRhkuG8ixla9dIbqJ6AS-3" value="&lt;font style=&quot;font-size: 24px;&quot;&gt;Визуальная новелла&lt;/font&gt;" style="rounded=0;whiteSpace=wrap;html=1;" vertex="1" parent="1">
          <mxGeometry x="110" y="-498.5" width="180" height="70" as="geometry" />
        </mxCell>
        <mxCell id="mRhkuG8ixla9dIbqJ6AS-5" value="&lt;font style=&quot;font-size: 24px;&quot;&gt;Выбор диалогов&lt;/font&gt;" style="rounded=0;whiteSpace=wrap;html=1;" vertex="1" parent="1">
          <mxGeometry x="110" y="-674" width="180" height="60" as="geometry" />
        </mxCell>
        <mxCell id="mRhkuG8ixla9dIbqJ6AS-7" value="&lt;font style=&quot;font-size: 24px;&quot;&gt;Сохраненные записи&lt;/font&gt;" style="rounded=0;whiteSpace=wrap;html=1;" vertex="1" parent="1">
          <mxGeometry x="-10" y="-320" width="260" height="60" as="geometry" />
        </mxCell>
        <mxCell id="mRhkuG8ixla9dIbqJ6AS-9" value="&lt;font style=&quot;font-size: 24px;&quot;&gt;Режим экрана&lt;/font&gt;" style="rounded=0;whiteSpace=wrap;html=1;" vertex="1" parent="1">
          <mxGeometry x="360" y="-80" width="160" height="60" as="geometry" />
        </mxCell>
        <mxCell id="mRhkuG8ixla9dIbqJ6AS-11" value="&lt;font style=&quot;font-size: 24px;&quot;&gt;Сторона отката&lt;/font&gt;" style="rounded=0;whiteSpace=wrap;html=1;" vertex="1" parent="1">
          <mxGeometry x="370" y="40" width="140" height="60" as="geometry" />
        </mxCell>
        <mxCell id="mRhkuG8ixla9dIbqJ6AS-13" value="&lt;font style=&quot;font-size: 24px;&quot;&gt;Пропуск&lt;/font&gt;" style="rounded=0;whiteSpace=wrap;html=1;" vertex="1" parent="1">
          <mxGeometry x="380" y="160" width="120" height="60" as="geometry" />
        </mxCell>
        <mxCell id="mRhkuG8ixla9dIbqJ6AS-15" value="&lt;font style=&quot;font-size: 24px;&quot;&gt;Скорость текста&amp;nbsp;&lt;/font&gt;" style="rounded=0;whiteSpace=wrap;html=1;" vertex="1" parent="1">
          <mxGeometry x="380" y="270" width="120" height="60" as="geometry" />
        </mxCell>
        <mxCell id="mRhkuG8ixla9dIbqJ6AS-17" value="&lt;font style=&quot;font-size: 24px;&quot;&gt;&lt;br&gt;&lt;span style=&quot;font-family: &amp;quot;Times New Roman&amp;quot;, serif;&quot;&gt;Скорость авточтения &lt;/span&gt;&lt;br&gt;&lt;br&gt;&lt;br&gt;&lt;/font&gt;" style="rounded=0;whiteSpace=wrap;html=1;" vertex="1" parent="1">
          <mxGeometry x="370" y="370" width="150" height="90" as="geometry" />
        </mxCell>
        <mxCell id="mRhkuG8ixla9dIbqJ6AS-19" value="&lt;br&gt;&lt;font style=&quot;font-size: 24px;&quot;&gt;&lt;span style=&quot;font-family: &amp;quot;Times New Roman&amp;quot;, serif;&quot;&gt;Громкость музыки&lt;/span&gt;&lt;br&gt;&lt;/font&gt;&lt;br&gt;&lt;br&gt;" style="rounded=0;whiteSpace=wrap;html=1;" vertex="1" parent="1">
          <mxGeometry x="380" y="510" width="130" height="75" as="geometry" />
        </mxCell>
        <mxCell id="mRhkuG8ixla9dIbqJ6AS-21" value="&lt;br&gt;&lt;font style=&quot;font-size: 24px;&quot;&gt;&lt;span style=&quot;font-family: &amp;quot;Times New Roman&amp;quot;, serif;&quot;&gt;Громкость звуков&lt;/span&gt;&lt;br&gt;&lt;/font&gt;&lt;br&gt;&lt;br&gt;" style="rounded=0;whiteSpace=wrap;html=1;" vertex="1" parent="1">
          <mxGeometry x="365" y="630" width="150" height="80" as="geometry" />
        </mxCell>
        <mxCell id="mRhkuG8ixla9dIbqJ6AS-23" value="&lt;font style=&quot;font-size: 24px;&quot;&gt;Громкость голоса&amp;nbsp;&lt;/font&gt;" style="rounded=0;whiteSpace=wrap;html=1;" vertex="1" parent="1">
          <mxGeometry x="380" y="750" width="125" height="80" as="geometry" />
        </mxCell>
        <mxCell id="mRhkuG8ixla9dIbqJ6AS-25" value="&lt;font style=&quot;font-size: 24px;&quot;&gt;Без звука&lt;/font&gt;" style="rounded=0;whiteSpace=wrap;html=1;" vertex="1" parent="1">
          <mxGeometry x="385" y="890" width="120" height="60" as="geometry" />
        </mxCell>
        <mxCell id="mRhkuG8ixla9dIbqJ6AS-28" value="&lt;font style=&quot;font-size: 24px;&quot;&gt;Концовка № 1&lt;/font&gt;" style="rounded=0;whiteSpace=wrap;html=1;" vertex="1" parent="1">
          <mxGeometry x="1241" y="-80" width="169" height="60" as="geometry" />
        </mxCell>
        <mxCell id="mRhkuG8ixla9dIbqJ6AS-29" value="&lt;font style=&quot;font-size: 24px;&quot;&gt;Концовка № 2&lt;/font&gt;" style="rounded=0;whiteSpace=wrap;html=1;" vertex="1" parent="1">
          <mxGeometry x="1241" y="60" width="169" height="60" as="geometry" />
        </mxCell>
        <mxCell id="mRhkuG8ixla9dIbqJ6AS-30" value="&lt;font style=&quot;font-size: 24px;&quot;&gt;Концовка № 3&lt;/font&gt;" style="rounded=0;whiteSpace=wrap;html=1;" vertex="1" parent="1">
          <mxGeometry x="1241" y="200" width="169" height="60" as="geometry" />
        </mxCell>
        <mxCell id="mRhkuG8ixla9dIbqJ6AS-34" value="&lt;font style=&quot;font-size: 24px;&quot;&gt;Назад (кнопка)&lt;/font&gt;" style="rounded=0;whiteSpace=wrap;html=1;" vertex="1" parent="1">
          <mxGeometry x="1241" y="320" width="174" height="60" as="geometry" />
        </mxCell>
        <mxCell id="mRhkuG8ixla9dIbqJ6AS-36" value="&lt;font style=&quot;font-size: 24px;&quot;&gt;Информация об игре&lt;/font&gt;" style="rounded=0;whiteSpace=wrap;html=1;" vertex="1" parent="1">
          <mxGeometry x="1760" y="-320" width="230" height="60" as="geometry" />
        </mxCell>
        <mxCell id="mRhkuG8ixla9dIbqJ6AS-38" value="&lt;font style=&quot;font-size: 24px;&quot;&gt;Инструкция по управлению&lt;/font&gt;" style="rounded=0;whiteSpace=wrap;html=1;" vertex="1" parent="1">
          <mxGeometry x="1780" y="-490" width="210" height="60" as="geometry" />
        </mxCell>
        <mxCell id="mRhkuG8ixla9dIbqJ6AS-40" value="&lt;span style=&quot;font-size: 24px;&quot;&gt;Выход из игры&lt;/span&gt;" style="rounded=0;whiteSpace=wrap;html=1;" vertex="1" parent="1">
          <mxGeometry x="1810" y="-677" width="170" height="60" as="geometry" />
        </mxCell>
      </root>
    </mxGraphModel>
  </diagram>
</mxfile>
